<svg viewBox="0 0 100 100" xmlns="http://www.w3.org/2000/svg">
  <rect width="100" height="100" rx="22" fill="#0061cc"/>
  <g transform="translate(12,10) scale(0.76)">
    <rect x="5" y="5" width="44" height="7" fill="white"/>
    <rect x="51" y="5" width="44" height="7" fill="white"/>
    <polygon points="5,12 42,12 42,20 35,20 20,68 5,68" fill="white"/>
    <polygon points="15,55 26,55 23,32 18,32" fill="#0061cc"/>
    <polygon points="58,12 95,12 95,68 80,68 65,20 58,20" fill="white"/>
    <polygon points="74,55 85,55 82,32 77,32" fill="#0061cc"/>
    <rect x="44" y="12" width="12" height="78" fill="white"/>
    <rect x="5" y="85" width="40" height="10" fill="white"/>
    <rect x="55" y="85" width="40" height="10" fill="white"/>
  </g>
</svg>
