<svg xmlns="http://www.w3.org/2000/svg" viewBox="0 0 620 100" fill="none" stroke="#0F172A" stroke-width="12" stroke-linecap="square" stroke-linejoin="miter">
  <title>EQUALAW</title>
  <!-- E -->
  <path d="M6 6 V94 M6 6 H54 M6 50 H48 M6 94 H54"/>
  <!-- Q: circle + tail -->
  <circle cx="113" cy="50" r="38"/>
  <path d="M133 78 L155 100"/>
  <!-- U -->
  <path d="M180 6 V62 a26 26 0 0 0 52 0 V6"/>
  <!-- A -->
  <path d="M255 94 L290 6 L325 94 M268 64 H312"/>
  <!-- L -->
  <path d="M350 6 V94 H400"/>
  <!-- A -->
  <path d="M420 94 L455 6 L490 94 M433 64 H477"/>
  <!-- W -->
  <path d="M515 6 L535 94 L560 38 L585 94 L605 6"/>
</svg>
